<svg width="160" height="160" viewBox="0 0 160 160" fill="none" xmlns="http://www.w3.org/2000/svg">
  <rect width="160" height="160" rx="28" fill="#F6F0E1"/>
  <path d="M80 22C101.539 22 119 39.4609 119 61C119 85.7254 98.2394 115.268 80 134C61.7606 115.268 41 85.7254 41 61C41 39.4609 58.4609 22 80 22Z" fill="#C8872A"/>
  <path d="M78.8275 50C64.5642 50 53 61.5642 53 75.8275C53 93.2886 68.9313 112.808 80.5 123C92.0687 112.808 108 93.2886 108 75.8275C108 61.5642 96.4358 50 82.1725 50H78.8275Z" fill="#F7F6F0"/>
  <path d="M79.9987 109C95.9592 92.3209 101.407 76.6986 100.468 65.3592C90.3381 66.8362 82.8036 72.2228 79.9987 82.189V109Z" fill="#4D7B3D"/>
  <path d="M80.0013 109C64.0408 92.3209 58.5929 76.6986 59.5316 65.3592C69.6618 66.8362 77.1964 72.2228 80.0013 82.189V109Z" fill="#6A9A45"/>
  <path d="M48 45C55.8448 28.8915 70.786 20 88 20C98.5228 20 108.65 23.6437 116 30.302L126 38H108.5C101.48 33.3947 93.0847 31 84 31C70.6564 31 58.8002 36.1702 51.5 45H48Z" fill="#E8C35C"/>
</svg>
